<?xml version="1.0" encoding="UTF-8" standalone="no"?>
<!DOCTYPE svg PUBLIC "-//W3C//DTD SVG 1.1//EN" "http://www.w3.org/Graphics/SVG/1.1/DTD/svg11.dtd">
<svg width="100%" height="100%" viewBox="0 0 1319 1319" version="1.1" xmlns="http://www.w3.org/2000/svg" xmlns:xlink="http://www.w3.org/1999/xlink" xml:space="preserve" xmlns:serif="http://www.serif.com/" style="fill-rule:evenodd;clip-rule:evenodd;stroke-linejoin:round;">
    <g id="Layer-1" serif:id="Layer 1" transform="matrix(1,0,0,1,-347.977,238.451)">
        <g id="g4271" transform="matrix(2.62978,0,0,2.40481,286.65,-1963.86)">
            <ellipse id="ellipse4153" cx="273.536" cy="909.615" rx="188.384" ry="189.131" style="fill:white;stroke:rgb(16,137,7);stroke-width:6px;"/>
            <g id="g4263">
                <path id="ellipse4150" d="M461.92,909.615C461.92,1014.07 377.578,1098.75 273.536,1098.75C221.516,1098.75 183.159,1044.3 180.898,1000.73C178.637,957.159 214.205,910.638 268.332,909.798C322.459,908.957 359.379,861.394 359.379,817.179C359.379,772.964 330.744,734.863 273.536,720.484C377.578,720.484 461.92,805.161 461.92,909.615Z" style="fill-rule:nonzero;stroke:rgb(16,137,7);stroke-width:6px;"/>
                <ellipse id="path4148" cx="273.536" cy="909.615" rx="188.384" ry="189.131" style="fill:none;stroke:rgb(16,137,7);stroke-width:6px;"/>
                <g id="flowRoot4155" transform="matrix(1,0,0,1,74.2857,713.505)">
                    <path id="path4194" d="M188.469,135.783C188.469,145.005 185.191,152.894 178.636,159.45C172.191,165.894 164.358,169.117 155.136,169.117L138.469,169.117C129.247,169.117 121.358,165.894 114.802,159.45C108.358,152.894 105.136,145.005 105.136,135.783L105.136,85.783C105.136,76.561 108.358,68.728 114.802,62.283C121.358,55.728 129.247,52.45 138.469,52.45L155.136,52.45C164.358,52.45 172.191,55.728 178.636,62.283C185.191,68.839 188.469,76.672 188.469,85.783L188.469,135.783ZM169.302,76.783C165.969,71.672 161.247,69.117 155.136,69.117L138.469,69.117C133.914,69.117 129.969,70.783 126.636,74.117C123.414,77.339 121.802,81.228 121.802,85.783L121.802,124.283L169.302,76.783ZM171.802,135.783L171.802,97.617L124.636,144.783C127.969,149.894 132.58,152.45 138.469,152.45L155.136,152.45C159.691,152.45 163.58,150.839 166.802,147.617C170.136,144.283 171.802,140.339 171.802,135.783Z" style="fill-rule:nonzero;stroke:rgb(16,137,7);stroke-width:0.4px;stroke-miterlimit:2;"/>
                </g>
                <g id="flowRoot4165" transform="matrix(1,0,0,1,151.316,879.89)">
                    <path id="path4197" d="M125.937,160.344L150.106,160.344L150.106,76.922L123.813,82.195L123.813,68.718L149.96,63.445L164.755,63.445L164.755,160.344L188.925,160.344L188.925,172.796L125.937,172.796L125.937,160.344Z" style="fill:white;fill-rule:nonzero;stroke:rgb(16,137,7);stroke-width:0.4px;stroke-miterlimit:2;"/>
                </g>
            </g>
        </g>
        <g id="flowRoot4175" transform="matrix(1,0,0,1,74.2857,713.505)">
            <g id="g4229">
                <g id="flowRoot41751" serif:id="flowRoot4175">
                    <path id="path4200" d="M508.929,112.74C508.929,122.347 505.514,130.564 498.686,137.393C491.973,144.106 483.813,147.462 474.206,147.462L456.845,147.462C447.239,147.462 439.021,144.106 432.192,137.393C425.48,130.564 422.123,122.347 422.123,112.74L422.123,60.657C422.123,51.05 425.48,42.891 432.192,36.178C439.021,29.349 447.239,25.935 456.845,25.935L474.206,25.935C483.813,25.935 491.973,29.349 498.686,36.178C505.514,43.006 508.929,51.166 508.929,60.657L491.567,60.657C491.567,55.912 489.831,51.861 486.359,48.504C483.003,45.032 478.952,43.296 474.206,43.296L456.845,43.296C452.1,43.296 447.991,45.032 444.519,48.504C441.162,51.861 439.484,55.912 439.484,60.657L439.484,112.74C439.484,117.486 441.162,121.594 444.519,125.067C447.991,128.423 452.1,130.101 456.845,130.101L474.206,130.101C478.952,130.101 483.003,128.423 486.359,125.067C489.831,121.594 491.567,117.486 491.567,112.74L508.929,112.74Z" style="fill:rgb(11,206,8);fill-rule:nonzero;"/>
                    <path id="path4202" d="M612.994,112.74C612.994,122.347 609.579,130.564 602.75,137.393C596.038,144.106 587.878,147.462 578.271,147.462L560.91,147.462C551.304,147.462 543.086,144.106 536.257,137.393C529.544,130.564 526.188,122.347 526.188,112.74L526.188,60.657C526.188,51.05 529.544,42.891 536.257,36.178C543.086,29.349 551.304,25.935 560.91,25.935L578.271,25.935C587.878,25.935 596.038,29.349 602.75,36.178C609.579,43.006 612.994,51.166 612.994,60.657L612.994,112.74ZM595.632,112.74L595.632,60.657C595.632,55.912 593.896,51.861 590.424,48.504C587.068,45.032 583.017,43.296 578.271,43.296L560.91,43.296C556.165,43.296 552.056,45.032 548.584,48.504C545.227,51.861 543.549,55.912 543.549,60.657L543.549,112.74C543.549,117.486 545.227,121.594 548.584,125.067C552.056,128.423 556.165,130.101 560.91,130.101L578.271,130.101C583.017,130.101 587.068,128.423 590.424,125.067C593.896,121.594 595.632,117.486 595.632,112.74Z" style="fill:rgb(11,206,8);fill-rule:nonzero;"/>
                    <path id="path4204" d="M717.058,112.74C717.058,122.347 713.644,130.564 706.815,137.393C700.102,144.106 691.943,147.462 682.336,147.462L630.253,147.462L630.253,25.935L682.336,25.935C691.943,25.935 700.102,29.349 706.815,36.178C713.644,43.006 717.058,51.166 717.058,60.657L717.058,112.74ZM699.697,112.74L699.697,60.657C699.697,55.912 697.961,51.861 694.489,48.504C691.133,45.032 687.082,43.296 682.336,43.296L647.614,43.296L647.614,130.101L682.336,130.101C687.082,130.101 691.133,128.423 694.489,125.067C697.961,121.594 699.697,117.486 699.697,112.74Z" style="fill:rgb(11,206,8);fill-rule:nonzero;"/>
                    <path id="path4206" d="M821.123,147.462L734.318,147.462L734.318,25.935L821.123,25.935L821.123,43.296L751.679,43.296L751.679,78.018L803.762,78.018L803.762,95.379L751.679,95.379L751.679,130.101L821.123,130.101L821.123,147.462Z" style="fill:rgb(11,206,8);fill-rule:nonzero;"/>
                    <path id="path4208" d="M907.827,147.462L907.827,112.74C907.827,107.995 906.091,103.944 902.619,100.587C899.262,97.115 895.212,95.379 890.466,95.379L855.744,95.379L855.744,147.462L838.383,147.462L838.383,25.935L890.466,25.935C900.073,25.935 908.232,29.349 914.945,36.178C921.774,42.891 925.188,51.05 925.188,60.657C925.188,71.074 920.269,79.754 910.431,86.699C920.269,93.643 925.188,102.324 925.188,112.74L925.188,147.462L907.827,147.462ZM855.744,78.018L890.466,78.018C895.212,78.018 899.262,76.34 902.619,72.983C906.091,69.511 907.827,65.402 907.827,60.657C907.827,55.912 906.091,51.861 902.619,48.504C899.262,45.032 895.212,43.296 890.466,43.296L855.744,43.296L855.744,78.018Z" style="fill:rgb(11,206,8);fill-rule:nonzero;"/>
                    <path id="path4210" d="M1133.32,112.74C1133.32,122.347 1129.9,130.564 1123.08,137.393C1116.36,144.106 1108.2,147.462 1098.6,147.462L1046.51,147.462L1046.51,25.935L1098.6,25.935C1108.2,25.935 1116.36,29.349 1123.08,36.178C1129.9,43.006 1133.32,51.166 1133.32,60.657L1133.32,112.74ZM1115.96,112.74L1115.96,60.657C1115.96,55.912 1114.22,51.861 1110.75,48.504C1107.39,45.032 1103.34,43.296 1098.6,43.296L1063.87,43.296L1063.87,130.101L1098.6,130.101C1103.34,130.101 1107.39,128.423 1110.75,125.067C1114.22,121.594 1115.96,117.486 1115.96,112.74Z" style="fill:rgb(11,206,8);fill-rule:nonzero;"/>
                    <path id="path4212" d="M1237.38,112.74C1237.38,122.347 1233.97,130.564 1227.14,137.393C1220.43,144.106 1212.27,147.462 1202.66,147.462L1185.3,147.462C1175.69,147.462 1167.48,144.106 1160.65,137.393C1153.93,130.564 1150.58,122.347 1150.58,112.74L1150.58,60.657C1150.58,51.05 1153.93,42.891 1160.65,36.178C1167.48,29.349 1175.69,25.935 1185.3,25.935L1202.66,25.935C1212.27,25.935 1220.43,29.349 1227.14,36.178C1233.97,43.006 1237.38,51.166 1237.38,60.657L1237.38,112.74ZM1220.02,112.74L1220.02,60.657C1220.02,55.912 1218.29,51.861 1214.81,48.504C1211.46,45.032 1207.41,43.296 1202.66,43.296L1185.3,43.296C1180.55,43.296 1176.45,45.032 1172.97,48.504C1169.62,51.861 1167.94,55.912 1167.94,60.657L1167.94,112.74C1167.94,117.486 1169.62,121.594 1172.97,125.067C1176.45,128.423 1180.55,130.101 1185.3,130.101L1202.66,130.101C1207.41,130.101 1211.46,128.423 1214.81,125.067C1218.29,121.594 1220.02,117.486 1220.02,112.74Z" style="fill:rgb(11,206,8);fill-rule:nonzero;"/>
                    <path id="path4214" d="M1341.45,112.74C1341.45,122.347 1338.03,130.564 1331.2,137.393C1324.49,144.106 1316.33,147.462 1306.73,147.462L1289.37,147.462C1279.76,147.462 1271.54,144.106 1264.71,137.393C1258,130.564 1254.64,122.347 1254.64,112.74L1254.64,95.379L1272,95.379L1272,112.74C1272,117.486 1273.68,121.594 1277.04,125.067C1280.51,128.423 1284.62,130.101 1289.37,130.101L1306.73,130.101C1311.47,130.101 1315.52,128.423 1318.88,125.067C1322.35,121.594 1324.09,117.486 1324.09,112.74L1324.09,25.935L1341.45,25.935L1341.45,112.74Z" style="fill:rgb(11,206,8);fill-rule:nonzero;"/>
                    <path id="path4216" d="M1445.51,112.74C1445.51,122.347 1442.1,130.564 1435.27,137.393C1428.56,144.106 1420.4,147.462 1410.79,147.462L1393.43,147.462C1383.82,147.462 1375.61,144.106 1368.78,137.393C1362.06,130.564 1358.71,122.347 1358.71,112.74L1358.71,60.657C1358.71,51.05 1362.06,42.891 1368.78,36.178C1375.61,29.349 1383.82,25.935 1393.43,25.935L1410.79,25.935C1420.4,25.935 1428.56,29.349 1435.27,36.178C1442.1,43.006 1445.51,51.166 1445.51,60.657L1445.51,112.74ZM1428.15,112.74L1428.15,60.657C1428.15,55.912 1426.42,51.861 1422.94,48.504C1419.59,45.032 1415.54,43.296 1410.79,43.296L1393.43,43.296C1388.68,43.296 1384.58,45.032 1381.1,48.504C1377.75,51.861 1376.07,55.912 1376.07,60.657L1376.07,112.74C1376.07,117.486 1377.75,121.594 1381.1,125.067C1384.58,128.423 1388.68,130.101 1393.43,130.101L1410.79,130.101C1415.54,130.101 1419.59,128.423 1422.94,125.067C1426.42,121.594 1428.15,117.486 1428.15,112.74Z" style="fill:rgb(11,206,8);fill-rule:nonzero;"/>
                </g>
            </g>
        </g>
        <g id="flowRoot4183" transform="matrix(1,0,0,1,331.1,901.614)">
            <g id="g4241">
                <g id="flowRoot41831" serif:id="flowRoot4183">
                    <path id="path4219" d="M508.929,147.462L422.123,147.462L422.123,25.935L508.929,25.935L508.929,43.296L439.484,43.296L439.484,78.018L491.567,78.018L491.567,95.379L439.484,95.379L439.484,130.101L508.929,130.101L508.929,147.462Z" style="fill:rgb(11,206,8);fill-rule:nonzero;"/>
                    <path id="path4221" d="M612.994,147.462L595.632,147.462L595.632,107.358L543.549,55.275L543.549,147.462L526.188,147.462L526.188,25.935L538.167,25.935L595.632,83.4L595.632,25.935L612.994,25.935L612.994,147.462Z" style="fill:rgb(11,206,8);fill-rule:nonzero;"/>
                    <path id="path4223" d="M717.058,147.462L699.697,147.462L699.697,107.358L647.614,55.275L647.614,147.462L630.253,147.462L630.253,25.935L642.232,25.935L699.697,83.4L699.697,25.935L717.058,25.935L717.058,147.462Z" style="fill:rgb(11,206,8);fill-rule:nonzero;"/>
                    <path id="path4225" d="M821.123,147.462L734.318,147.462L734.318,130.101L769.04,130.101L769.04,43.296L734.318,43.296L734.318,25.935L821.123,25.935L821.123,43.296L786.401,43.296L786.401,130.101L821.123,130.101L821.123,147.462Z" style="fill:rgb(11,206,8);fill-rule:nonzero;"/>
                    <path id="path4227" d="M925.188,112.74C925.188,122.347 921.774,130.564 914.945,137.393C908.232,144.106 900.073,147.462 890.466,147.462L873.105,147.462C863.499,147.462 855.281,144.106 848.452,137.393C841.739,130.564 838.383,122.347 838.383,112.74L855.744,112.74C855.744,117.486 857.422,121.594 860.779,125.067C864.251,128.423 868.36,130.101 873.105,130.101L890.466,130.101C895.212,130.101 899.262,128.423 902.619,125.067C906.091,121.594 907.827,117.486 907.827,112.74C907.827,107.995 906.091,103.944 902.619,100.587C899.262,97.115 895.212,95.379 890.466,95.379L873.105,95.379C863.499,95.379 855.281,92.023 848.452,85.31C841.739,78.481 838.383,70.263 838.383,60.657C838.383,51.05 841.739,42.891 848.452,36.178C855.281,29.349 863.499,25.935 873.105,25.935L890.466,25.935C900.073,25.935 908.232,29.349 914.945,36.178C921.774,43.006 925.188,51.166 925.188,60.657L907.827,60.657C907.827,55.912 906.091,51.861 902.619,48.504C899.262,45.032 895.212,43.296 890.466,43.296L873.105,43.296C868.36,43.296 864.251,45.032 860.779,48.504C857.422,51.861 855.744,55.912 855.744,60.657C855.744,65.402 857.422,69.511 860.779,72.983C864.251,76.34 868.36,78.018 873.105,78.018L890.466,78.018C899.957,78.018 908.117,81.432 914.945,88.261C921.774,95.09 925.188,103.249 925.188,112.74Z" style="fill:rgb(11,206,8);fill-rule:nonzero;"/>
                </g>
            </g>
        </g>
    </g>
</svg>
